<svg width="14" height="14" viewBox="0 0 14 14" fill="none" xmlns="http://www.w3.org/2000/svg">
<path d="M6.24911 7C6.24911 7.19891 6.32813 7.38968 6.46878 7.53033C6.60944 7.67098 6.8002 7.75 6.99911 7.75C7.19803 7.75 7.38879 7.67098 7.52944 7.53033C7.6701 7.38968 7.74911 7.19891 7.74911 7C7.74911 6.80109 7.6701 6.61032 7.52944 6.46967C7.38879 6.32902 7.19803 6.25 6.99911 6.25C6.8002 6.25 6.60944 6.32902 6.46878 6.46967C6.32813 6.61032 6.24911 6.80109 6.24911 7V7ZM9.37411 7C9.37411 7.19891 9.45313 7.38968 9.59378 7.53033C9.73444 7.67098 9.9252 7.75 10.1241 7.75C10.323 7.75 10.5138 7.67098 10.6544 7.53033C10.7951 7.38968 10.8741 7.19891 10.8741 7C10.8741 6.80109 10.7951 6.61032 10.6544 6.46967C10.5138 6.32902 10.323 6.25 10.1241 6.25C9.9252 6.25 9.73444 6.32902 9.59378 6.46967C9.45313 6.61032 9.37411 6.80109 9.37411 7ZM3.12411 7C3.12411 7.19891 3.20313 7.38968 3.34378 7.53033C3.48443 7.67098 3.6752 7.75 3.87411 7.75C4.07302 7.75 4.26379 7.67098 4.40444 7.53033C4.5451 7.38968 4.62411 7.19891 4.62411 7C4.62411 6.80109 4.5451 6.61032 4.40444 6.46967C4.26379 6.32902 4.07302 6.25 3.87411 6.25C3.6752 6.25 3.48443 6.32902 3.34378 6.46967C3.20313 6.61032 3.12411 6.80109 3.12411 7V7ZM13.4554 4.2875C13.1022 3.44844 12.596 2.69531 11.9507 2.04844C11.3099 1.40531 10.5492 0.894096 9.71161 0.54375C8.85224 0.182813 7.93974 0 6.99911 0H6.96786C6.02099 0.0046875 5.1038 0.192188 4.2413 0.560938C3.41092 0.914877 2.65734 1.427 2.02255 2.06875C1.38349 2.71406 0.881925 3.46406 0.53505 4.3C0.175675 5.16563 -0.00557542 6.08594 -0.000887918 7.03281C0.00441404 8.11792 0.261131 9.18704 0.749112 10.1562V12.5312C0.749112 12.7219 0.824837 12.9047 0.959629 13.0395C1.09442 13.1743 1.27724 13.25 1.46786 13.25H3.84443C4.81363 13.738 5.88275 13.9947 6.96786 14H7.00068C7.93661 14 8.84443 13.8188 9.69911 13.4641C10.5324 13.1179 11.2903 12.6126 11.9304 11.9766C12.5757 11.3375 13.0835 10.5906 13.4382 9.75781C13.8069 8.89531 13.9944 7.97812 13.9991 7.03125C14.0038 6.07969 13.8194 5.15625 13.4554 4.2875V4.2875ZM11.0944 11.1313C9.99911 12.2156 8.54599 12.8125 6.99911 12.8125H6.97255C6.03036 12.8078 5.09443 12.5734 4.26786 12.1328L4.13661 12.0625H1.93661V9.8625L1.8663 9.73125C1.42567 8.90469 1.1913 7.96875 1.18661 7.02656C1.18036 5.46875 1.77567 4.00625 2.86786 2.90469C3.95849 1.80312 5.4163 1.19375 6.97411 1.1875H7.00068C7.78193 1.1875 8.53974 1.33906 9.2538 1.63906C9.95068 1.93125 10.5757 2.35156 11.1132 2.88906C11.6491 3.425 12.071 4.05156 12.3632 4.74844C12.6663 5.47031 12.8179 6.23594 12.8147 7.02656C12.8054 8.58281 12.1944 10.0406 11.0944 11.1313V11.1313Z" fill="white"/>
</svg>
