<svg width="186" height="186" viewBox="0 0 186 186" fill="none" xmlns="http://www.w3.org/2000/svg">
<circle cx="92.6461" cy="92.6465" r="92.485" fill="#FEBD06"/>
<path fill-rule="evenodd" clip-rule="evenodd" d="M79.1194 137.073C99.0169 137.073 106.253 113.251 117.558 100.179C125.646 90.8257 139.449 93.6147 143.535 80.5206C153.81 47.5943 126.31 24.42 90.4357 24.42C54.5612 24.42 30.3724 44.7445 25.1495 75.2977C19.9266 105.851 43.2449 137.073 79.1194 137.073Z" fill="#191847"/>
<path fill-rule="evenodd" clip-rule="evenodd" d="M63.8398 180.631L81.7386 116.942C74.123 107.69 69.0509 96.4649 69.9301 83.9336C72.5443 46.6761 124.408 54.8723 134.497 73.6767C144.585 92.481 143.386 140.18 130.348 143.541C125.573 144.772 115.843 142.104 105.555 136.398L115.512 182.225C108.13 184.122 100.392 185.131 92.4184 185.131C82.4447 185.131 72.8398 183.553 63.8398 180.631Z" fill="#F09B9B"/>
<path fill-rule="evenodd" clip-rule="evenodd" d="M71.6645 50.6754C39.6599 82.0128 71.7868 115.321 80.5895 115.321C81.1576 110.799 82.8909 106.401 85.4305 102.215C84.0817 100.468 83.2823 98.2953 83.2823 95.9407C83.2823 90.1716 88.0811 85.4949 94.0008 85.4949C95.8496 85.4949 97.5891 85.9511 99.1072 86.7542C111.938 75.8114 128.031 68.1828 136.022 66.6828C149.92 64.0738 103.669 19.338 71.6645 50.6754Z" fill="#191847"/>
</svg>
