<svg width="107" height="105" viewBox="0 0 107 105" fill="none" xmlns="http://www.w3.org/2000/svg">
<path d="M53.25 58.1748L41.315 65.3589C40.6629 65.7515 39.8444 65.7398 39.2037 65.3288L16.8299 50.9758C15.4988 50.1219 13.75 51.0777 13.75 52.6592V77.8628C13.75 78.568 14.1214 79.2211 14.7274 79.5816L53.25 102.5M53.25 58.1748L66.1705 65.8582C66.8305 66.2507 67.6569 66.2306 68.2971 65.8067L90.1457 51.3371C91.4752 50.4566 93.25 51.41 93.25 53.0046V79.8045C93.25 80.5408 92.8454 81.2176 92.1969 81.5662L53.25 102.5M53.25 58.1748V102.5" stroke="#E4E4E4" stroke-width="4"/>
<path d="M2.97447 24.7563L36.6967 3.17408C37.3411 2.76168 38.1643 2.75301 38.8172 3.15174L100.576 40.867C101.823 41.6287 101.859 43.4273 100.643 44.238L68.3005 65.7996C67.6588 66.2275 66.8282 66.2482 66.1659 65.8528L3.02736 28.1581C1.75108 27.3962 1.7225 25.5576 2.97447 24.7563Z" stroke="#E4E4E4" stroke-width="4"/>
<path d="M5.47447 43.7437L39.1967 65.3259C39.8411 65.7383 40.6643 65.747 41.3172 65.3483L103.076 27.633C104.323 26.8713 104.359 25.0727 103.143 24.262L70.8005 2.70036C70.1588 2.27251 69.3282 2.25183 68.6659 2.64722L5.52736 40.3419C4.25108 41.1038 4.2225 42.9424 5.47447 43.7437Z" stroke="#E4E4E4" stroke-width="4"/>
</svg>
