<svg width="32" height="32" viewBox="0 0 32 32" fill="none" xmlns="http://www.w3.org/2000/svg">
<g filter="url(#filter0_i_3681_49699)">
<path d="M21.9999 9.62149C22.6059 9.62149 23.1979 9.67185 23.7819 9.74385C22.7261 5.10724 17.8561 1.6001 12.0002 1.6001C5.37199 1.6001 0 6.08993 0 11.6269C0 14.8191 1.79611 17.6514 4.582 19.4839L2.99994 22.6565L7.30974 20.8055C8.23391 21.1346 9.19426 21.4056 10.22 21.5317C10.0798 20.9198 10.0002 20.2926 10.0002 19.6487C10.0002 14.1197 15.3819 9.62149 21.9999 9.62149ZM16.0002 6.11184C16.8284 6.11184 17.5 6.78558 17.5 7.61605C17.5 8.44681 16.8285 9.12006 16.0002 9.12006C15.1715 9.12006 14.5002 8.44681 14.5002 7.61605C14.5002 6.78551 15.1715 6.11184 16.0002 6.11184ZM8.00004 9.12006C7.17172 9.12006 6.50006 8.44681 6.50006 7.61605C6.50006 6.78558 7.17179 6.11184 8.00004 6.11184C8.82828 6.11184 9.50008 6.78558 9.50008 7.61605C9.50001 8.44681 8.82821 9.12006 8.00004 9.12006Z" fill="white"/>
<path d="M32 19.6486C32 15.2184 27.5216 11.6269 21.9999 11.6269C16.4779 11.6269 12.0002 15.2184 12.0002 19.6486C12.0002 24.0785 16.4779 27.6701 21.9999 27.6701C22.908 27.6701 23.7718 27.5417 24.6099 27.3594L30.0001 29.6754L28.1358 25.9396C30.4721 24.4714 32 22.2135 32 19.6486ZM19 19.1472C18.1718 19.1472 17.5 18.4737 17.5 17.6428C17.5 16.8123 18.1717 16.1391 19 16.1391C19.8285 16.1391 20.4999 16.8126 20.4999 17.6428C20.4999 18.4738 19.8284 19.1472 19 19.1472ZM24.9999 19.1472C24.1712 19.1472 23.5 18.4737 23.5 17.6428C23.5 16.8123 24.1712 16.1391 24.9999 16.1391C25.8285 16.1391 26.4999 16.8126 26.4999 17.6428C26.4999 18.4738 25.8285 19.1472 24.9999 19.1472Z" fill="white"/>
</g>
<defs>
<filter id="filter0_i_3681_49699" x="0" y="0" width="32" height="32.5" filterUnits="userSpaceOnUse" color-interpolation-filters="sRGB">
<feFlood flood-opacity="0" result="BackgroundImageFix"/>
<feBlend mode="normal" in="SourceGraphic" in2="BackgroundImageFix" result="shape"/>
<feColorMatrix in="SourceAlpha" type="matrix" values="0 0 0 0 0 0 0 0 0 0 0 0 0 0 0 0 0 0 127 0" result="hardAlpha"/>
<feOffset dy="0.5"/>
<feGaussianBlur stdDeviation="1.25"/>
<feComposite in2="hardAlpha" operator="arithmetic" k2="-1" k3="1"/>
<feColorMatrix type="matrix" values="0 0 0 0 0 0 0 0 0 0 0 0 0 0 0 0 0 0 0.1 0"/>
<feBlend mode="normal" in2="shape" result="effect1_innerShadow_3681_49699"/>
</filter>
</defs>
</svg>
