<svg width="17" height="16" viewBox="0 0 17 16" fill="none" xmlns="http://www.w3.org/2000/svg">
<path d="M5.16638 7.33374H6.49972V8.66707H5.16638V7.33374ZM5.16638 10.0004H6.49972V11.3337H5.16638V10.0004ZM7.83305 7.33374H9.16638V8.66707H7.83305V7.33374ZM7.83305 10.0004H9.16638V11.3337H7.83305V10.0004ZM10.4997 7.33374H11.833V8.66707H10.4997V7.33374ZM10.4997 10.0004H11.833V11.3337H10.4997V10.0004Z" fill="#3A3B3C"/>
<path d="M3.83333 14.6671H13.1667C13.902 14.6671 14.5 14.0691 14.5 13.3337V4.00041C14.5 3.26507 13.902 2.66707 13.1667 2.66707H11.8333V1.33374H10.5V2.66707H6.5V1.33374H5.16667V2.66707H3.83333C3.098 2.66707 2.5 3.26507 2.5 4.00041V13.3337C2.5 14.0691 3.098 14.6671 3.83333 14.6671ZM13.1667 5.33374L13.1673 13.3337H3.83333V5.33374H13.1667Z" fill="#3A3B3C"/>
</svg>
