<svg width="31" height="29" viewBox="0 0 31 29" fill="none" xmlns="http://www.w3.org/2000/svg">
<path opacity="0.3" d="M15.6411 8.17151C10.8292 8.17151 6.53778 10.6125 4.44287 14.4744C6.53778 18.3364 10.8165 20.7773 15.6411 20.7773C20.4657 20.7773 24.7444 18.3364 26.8393 14.4744C24.7444 10.6125 20.453 8.17151 15.6411 8.17151ZM15.6411 19.6314C12.4924 19.6314 9.92771 17.3165 9.92771 14.4744C9.92771 11.6324 12.4924 9.31749 15.6411 9.31749C18.7898 9.31749 21.3545 11.6324 21.3545 14.4744C21.3545 17.3165 18.7898 19.6314 15.6411 19.6314Z" fill="#323232"/>
<path d="M15.6411 5.87964C9.29288 5.87964 3.87152 9.44365 1.67505 14.4745C3.87152 19.5054 9.29288 23.0694 15.6411 23.0694C21.9893 23.0694 27.4106 19.5054 29.6071 14.4745C27.4106 9.44365 21.9893 5.87964 15.6411 5.87964ZM15.6411 20.7774C10.8291 20.7774 6.53777 18.3365 4.44286 14.4745C6.53777 10.6126 10.8291 8.17161 15.6411 8.17161C20.453 8.17161 24.7444 10.6126 26.8393 14.4745C24.7444 18.3365 20.453 20.7774 15.6411 20.7774ZM15.6411 9.31759C12.4924 9.31759 9.9277 11.6325 9.9277 14.4745C9.9277 17.3166 12.4924 19.6315 15.6411 19.6315C18.7898 19.6315 21.3545 17.3166 21.3545 14.4745C21.3545 11.6325 18.7898 9.31759 15.6411 9.31759ZM15.6411 17.3395C13.889 17.3395 12.467 16.056 12.467 14.4745C12.467 12.8931 13.889 11.6096 15.6411 11.6096C17.3932 11.6096 18.8152 12.8931 18.8152 14.4745C18.8152 16.056 17.3932 17.3395 15.6411 17.3395Z" fill="#323232"/>
</svg>
