<svg width="12" height="23" viewBox="0 0 12 23" fill="none" xmlns="http://www.w3.org/2000/svg">
<path d="M6.14062 22.75C9.18062 22.75 11.6406 20.29 11.6406 17.25V5.75H10.1406V17.25C10.1406 19.46 8.35063 21.25 6.14062 21.25C3.93062 21.25 2.14062 19.46 2.14062 17.25V4.75C2.14062 3.37 3.26062 2.25 4.64062 2.25C6.02063 2.25 7.14062 3.37 7.14062 4.75V15.25C7.14062 15.8 6.69063 16.25 6.14062 16.25C5.59062 16.25 5.14062 15.8 5.14062 15.25V5.75H3.64062V15.25C3.64062 16.63 4.76062 17.75 6.14062 17.75C7.52063 17.75 8.64062 16.63 8.64062 15.25V4.75C8.64062 2.54 6.85063 0.75 4.64062 0.75C2.43062 0.75 0.640625 2.54 0.640625 4.75V17.25C0.640625 20.29 3.10063 22.75 6.14062 22.75Z" fill="#0061F4"/>
</svg>
