<svg width="15" height="18" viewBox="0 0 15 18" fill="none" xmlns="http://www.w3.org/2000/svg">
<path fill-rule="evenodd" clip-rule="evenodd" d="M9.56475 1.77114C10.1592 1.23252 10.938 0.943117 11.74 0.962862C12.5419 0.982606 13.3055 1.30998 13.8727 1.87721C14.44 2.44443 14.7673 3.20806 14.7871 4.01C14.8068 4.81193 14.5174 5.59075 13.9788 6.1852C13.9729 6.19172 13.9669 6.19812 13.9607 6.20438L6.20287 14.0716C6.19465 14.0799 6.18619 14.088 6.1775 14.0959C5.82083 14.4191 5.35354 14.5927 4.87238 14.5809C4.39122 14.569 3.93304 14.3726 3.59271 14.0322C3.25237 13.6919 3.05595 13.2337 3.0441 12.7526C3.03225 12.2714 3.20589 11.8041 3.52907 11.4474C3.53479 11.4411 3.54064 11.4349 3.54661 11.4289L10.0544 4.81168C10.2965 4.56557 10.6922 4.56227 10.9383 4.80431C11.1844 5.04634 11.1877 5.44206 10.9456 5.68816L4.44834 12.2947C4.34513 12.4125 4.28986 12.5649 4.29372 12.7218C4.29767 12.8822 4.36315 13.0349 4.47659 13.1484C4.59004 13.2618 4.74276 13.3273 4.90315 13.3312C5.05868 13.3351 5.20986 13.2807 5.32729 13.1792L13.0607 5.33678C13.3786 4.98128 13.5492 4.51784 13.5375 4.04076C13.5256 3.5596 13.3292 3.10142 12.9889 2.76109C12.6485 2.42075 12.1904 2.22433 11.7092 2.21248C11.2335 2.20077 10.7713 2.37037 10.4162 2.68655L2.66855 10.5434C2.08335 11.1286 1.75458 11.9223 1.75458 12.7499C1.75458 13.5775 2.08334 14.3712 2.66854 14.9564C3.25374 15.5416 4.04744 15.8704 4.87503 15.8704C5.70263 15.8704 6.49633 15.5416 7.08153 14.9564L13.4961 8.55744C13.7405 8.31366 14.1362 8.31414 14.38 8.55852C14.6238 8.80289 14.6233 9.19862 14.3789 9.4424L7.96541 15.8403C7.14579 16.6599 6.03415 17.1204 4.87503 17.1204C3.71592 17.1204 2.60427 16.6599 1.78465 15.8403C0.965035 15.0207 0.504578 13.909 0.504578 12.7499C0.504578 11.5916 0.96443 10.4806 1.78304 9.66116L9.53938 1.79546C9.54761 1.78711 9.55607 1.77901 9.56475 1.77114Z" fill="#0E1114"/>
</svg>
