<svg width="40" height="40" viewBox="0 0 40 40" fill="none" xmlns="http://www.w3.org/2000/svg">
<rect x="0.5" y="0.5" width="39" height="39" rx="4.5" stroke="white"/>
<path d="M28.05 20H11.95C11.4253 20 11 20.4253 11 20.95V21.05C11 21.5747 11.4253 22 11.95 22H28.05C28.5747 22 29 21.5747 29 21.05V20.95C29 20.4253 28.5747 20 28.05 20Z" fill="white"/>
<path d="M28.05 25H11.95C11.4253 25 11 25.4253 11 25.95V26.05C11 26.5747 11.4253 27 11.95 27H28.05C28.5747 27 29 26.5747 29 26.05V25.95C29 25.4253 28.5747 25 28.05 25Z" fill="white"/>
<path d="M28.05 15H11.95C11.4253 15 11 15.4253 11 15.95V16.05C11 16.5747 11.4253 17 11.95 17H28.05C28.5747 17 29 16.5747 29 16.05V15.95C29 15.4253 28.5747 15 28.05 15Z" fill="white"/>
</svg>
