<svg width="39" height="34" viewBox="0 0 39 34" fill="none" xmlns="http://www.w3.org/2000/svg">
<path d="M17.812 8.61115C24.9463 8.24077 30.9868 12.4216 31.2726 17.9277C31.5585 23.4338 25.9834 28.2177 18.8491 28.588C16.9402 28.6871 15.0467 28.4599 13.2496 27.9022C12.8044 27.7626 12.3314 27.712 11.8461 27.7372C11.5387 27.7532 11.2333 27.8066 10.9453 27.8842L5.8294 29.3266L7.14268 25.2522C7.3387 24.6537 7.24093 24.0202 6.87268 23.4885C5.96079 22.1713 5.46499 20.7448 5.3885 19.2715C5.10265 13.7653 10.6777 8.98152 17.812 8.61115Z" fill="#323232" fill-opacity="0.3"/>
<path d="M17.2857 2.7619C24.2157 2.7619 29.8571 7.71952 29.8571 13.8095C29.8571 19.8995 24.2157 24.8571 17.2857 24.8571C15.4314 24.8571 13.6086 24.4981 11.8957 23.78C11.4714 23.6005 11.0157 23.5176 10.5443 23.5176C10.2457 23.5176 9.94714 23.559 9.66429 23.6281L4.63571 24.9262L6.11286 20.5071C6.33286 19.8581 6.27 19.1538 5.94 18.5462C5.12286 17.041 4.71429 15.439 4.71429 13.8095C4.71429 7.71952 10.3557 2.7619 17.2857 2.7619ZM17.2857 0C8.61143 0 1.57143 6.18667 1.57143 13.8095C1.57143 15.9362 2.13714 17.9248 3.09571 19.7338L0 29L10.5443 26.2795C12.6029 27.1219 14.8657 27.619 17.2857 27.619C25.96 27.619 33 21.4324 33 13.8095C33 6.18667 25.96 0 17.2857 0Z" fill="#0061F4"/>
<line x1="12" y1="16.5" x2="23" y2="16.5" stroke="#0061F4"/>
<line x1="12" y1="13.5" x2="23" y2="13.5" stroke="#0061F4"/>
<line x1="12" y1="19.5" x2="23" y2="19.5" stroke="#0061F4"/>
<line x1="12" y1="13.5" x2="23" y2="13.5" stroke="#0061F4"/>
</svg>
