<svg width="40" height="40" viewBox="0 0 40 40" fill="none" xmlns="http://www.w3.org/2000/svg">
<path d="M29.307 12.9055L27.9852 13.9391C26.1828 11.6352 23.3797 10.1562 20.232 10.1562C14.7969 10.1562 10.3977 14.5508 10.3906 19.9883C10.3836 25.4305 14.7922 29.8438 20.232 29.8438C24.4813 29.8438 28.1024 27.1484 29.4805 23.3727C29.5156 23.2742 29.4641 23.1641 29.3656 23.1312L28.0367 22.6742C27.9904 22.6583 27.9397 22.6612 27.8954 22.6822C27.8512 22.7033 27.817 22.7408 27.8 22.7867C27.7578 22.9039 27.7109 23.0211 27.6617 23.1359C27.2563 24.0969 26.675 24.9594 25.9344 25.7C25.1997 26.436 24.3299 27.0233 23.3727 27.4297C22.3813 27.8492 21.3242 28.0625 20.2367 28.0625C19.1469 28.0625 18.0922 27.8492 17.1008 27.4297C16.1426 27.0251 15.2725 26.4375 14.5391 25.7C13.8024 24.9654 13.2157 24.0946 12.8117 23.1359C12.3922 22.1422 12.1789 21.0875 12.1789 19.9977C12.1789 18.9078 12.3922 17.8531 12.8117 16.8594C13.2172 15.8984 13.7984 15.0359 14.5391 14.2953C15.2797 13.5547 16.1422 12.9734 17.1008 12.5656C18.0922 12.1461 19.1492 11.9328 20.2367 11.9328C21.3266 11.9328 22.3813 12.1461 23.3727 12.5656C24.3308 12.9703 25.201 13.5578 25.9344 14.2953C26.1664 14.5273 26.3844 14.7734 26.5859 15.0312L25.175 16.1328C25.1471 16.1544 25.1258 16.1834 25.1137 16.2166C25.1015 16.2497 25.099 16.2856 25.1063 16.3201C25.1137 16.3547 25.1306 16.3864 25.1552 16.4117C25.1798 16.4371 25.211 16.4549 25.2453 16.4633L29.3609 17.4711C29.4781 17.4992 29.593 17.4102 29.593 17.2906L29.6117 13.0508C29.6094 12.8961 29.4289 12.8094 29.307 12.9055Z" fill="#01559B"/>
<rect x="0.5" y="0.5" width="39" height="39" rx="4.5" stroke="#D0D5DD"/>
</svg>
