<svg width="17" height="21" viewBox="0 0 17 21" fill="none" xmlns="http://www.w3.org/2000/svg">
<g filter="url(#filter0_d_3397_5051)">
<path d="M12.7885 9.25905C13.0635 9.00927 13.0632 8.57677 12.7879 8.32734V8.32734C12.5482 8.11023 12.183 8.11026 11.9433 8.32741L10.4904 9.64402C10.0406 10.0516 9.32071 9.73271 9.32033 9.12575L9.31562 1.63438C9.31539 1.26787 9.0181 0.970952 8.65159 0.971182V0.971182C8.28509 0.971413 7.98817 1.26871 7.9884 1.63521L7.99311 9.12427C7.99349 9.73159 7.27326 10.0512 6.82316 9.64351L5.37195 8.32893C5.13072 8.11041 4.76285 8.11129 4.52267 8.33096V8.33096C4.24832 8.58187 4.24936 9.01442 4.5249 9.26402L8.18862 12.5828C8.45559 12.8246 8.8625 12.8244 9.12917 12.5822L12.7885 9.25905Z" fill="#323232"/>
<path d="M8.6565 10.1471C8.89704 10.4653 9.24476 10.687 9.62635 10.7799L8.65831 11.659L7.68716 10.7793C8.0685 10.6864 8.41599 10.4649 8.6565 10.1471Z" stroke="#BABABA" stroke-width="2"/>
</g>
<defs>
<filter id="filter0_d_3397_5051" x="0.318359" y="0.971191" width="16.6758" height="19.7928" filterUnits="userSpaceOnUse" color-interpolation-filters="sRGB">
<feFlood flood-opacity="0" result="BackgroundImageFix"/>
<feColorMatrix in="SourceAlpha" type="matrix" values="0 0 0 0 0 0 0 0 0 0 0 0 0 0 0 0 0 0 127 0" result="hardAlpha"/>
<feOffset dy="4"/>
<feGaussianBlur stdDeviation="2"/>
<feComposite in2="hardAlpha" operator="out"/>
<feColorMatrix type="matrix" values="0 0 0 0 0 0 0 0 0 0 0 0 0 0 0 0 0 0 0.25 0"/>
<feBlend mode="normal" in2="BackgroundImageFix" result="effect1_dropShadow_3397_5051"/>
<feBlend mode="normal" in="SourceGraphic" in2="effect1_dropShadow_3397_5051" result="shape"/>
</filter>
</defs>
</svg>
