<svg width="32" height="32" viewBox="0 0 32 32" fill="none" xmlns="http://www.w3.org/2000/svg">
<rect x="0.5" y="0.5" width="31" height="31" rx="6.5" fill="#BDBDBD" fill-opacity="0.35"/>
<path d="M22.2856 11.2889H19.8571L19.2785 9.66751C19.2385 9.55656 19.1653 9.46066 19.0688 9.3929C18.9722 9.32514 18.8571 9.28884 18.7392 9.28894H13.2606C13.0196 9.28894 12.8035 9.44073 12.7231 9.66751L12.1428 11.2889H9.71422C8.92493 11.2889 8.28564 11.9282 8.28564 12.7175V20.8604C8.28564 21.6497 8.92493 22.2889 9.71422 22.2889H22.2856C23.0749 22.2889 23.7142 21.6497 23.7142 20.8604V12.7175C23.7142 11.9282 23.0749 11.2889 22.2856 11.2889ZM22.4285 20.8604C22.4285 20.9389 22.3642 21.0032 22.2856 21.0032H9.71422C9.63564 21.0032 9.57136 20.9389 9.57136 20.8604V12.7175C9.57136 12.6389 9.63564 12.5747 9.71422 12.5747H13.0481L13.3535 11.7211L13.7624 10.5747H18.2356L18.6446 11.7211L18.9499 12.5747H22.2856C22.3642 12.5747 22.4285 12.6389 22.4285 12.7175V20.8604ZM15.9999 13.7175C14.4214 13.7175 13.1428 14.9961 13.1428 16.5747C13.1428 18.1532 14.4214 19.4318 15.9999 19.4318C17.5785 19.4318 18.8571 18.1532 18.8571 16.5747C18.8571 14.9961 17.5785 13.7175 15.9999 13.7175ZM15.9999 18.2889C15.0535 18.2889 14.2856 17.5211 14.2856 16.5747C14.2856 15.6282 15.0535 14.8604 15.9999 14.8604C16.9464 14.8604 17.7142 15.6282 17.7142 16.5747C17.7142 17.5211 16.9464 18.2889 15.9999 18.2889Z" fill="white"/>
<rect x="0.5" y="0.5" width="31" height="31" rx="6.5" stroke="#E2E2E2"/>
</svg>
