<svg width="279" height="187" viewBox="0 0 279 187" fill="none" xmlns="http://www.w3.org/2000/svg">
<g clip-path="url(#clip0_4112_1276)">
<path fill-rule="evenodd" clip-rule="evenodd" d="M-0.399017 18.3678C-0.399017 9.11861 7.09893 1.62067 16.3481 1.62067H262.153C271.402 1.62067 278.9 9.11861 278.9 18.3678V111.938C278.369 111.865 277.827 111.828 277.277 111.828C270.713 111.828 265.392 117.149 265.392 123.713C265.392 130.277 270.713 135.598 277.277 135.598C277.827 135.598 278.369 135.56 278.9 135.488V171.253C278.9 180.502 271.402 188 262.153 188H16.3481C7.09893 188 -0.399017 180.502 -0.399017 171.253V135.598H-0.39743C6.16651 135.598 11.4876 130.277 11.4876 123.713C11.4876 117.149 6.16651 111.828 -0.39743 111.828H-0.399017V18.3678Z" fill="url(#paint0_linear_4112_1276)"/>
<path d="M279.168 82.3851L207.857 1.8908L208.127 0L278.357 33.1545L279.168 82.3851Z" fill="#277C53"/>
<path d="M279.438 80.4942L208.128 0L251.99 0L279.438 31.5338V80.4942Z" fill="url(#paint1_linear_4112_1276)"/>
<path d="M46.2344 87.8269H243.402" stroke="white" stroke-width="0.592985" stroke-linecap="round"/>
<g clip-path="url(#clip1_4112_1276)">
<path d="M250.109 17.211C250.074 17.1084 250.011 17.0182 249.926 16.9516C249.841 16.8851 249.738 16.845 249.631 16.8363L246.493 16.5852L245.136 13.5584C245.092 13.461 245.022 13.3782 244.933 13.32C244.844 13.2619 244.74 13.231 244.634 13.2309C244.528 13.2308 244.425 13.2617 244.336 13.3197C244.247 13.3777 244.176 13.4605 244.133 13.5579L242.775 16.5852L239.637 16.8363C239.532 16.8447 239.431 16.8836 239.347 16.9481C239.263 17.0127 239.199 17.1003 239.163 17.2005C239.127 17.3006 239.121 17.4091 239.144 17.5129C239.168 17.6167 239.221 17.7114 239.297 17.7858L241.615 20.0621L240.795 23.6382C240.77 23.7464 240.778 23.8597 240.818 23.9633C240.858 24.0669 240.928 24.1561 241.019 24.2193C241.109 24.2824 241.217 24.3167 241.327 24.3175C241.438 24.3183 241.546 24.2858 241.637 24.224L244.634 22.2121L247.631 24.224C247.725 24.2867 247.835 24.319 247.948 24.3165C248.06 24.314 248.169 24.2769 248.26 24.2101C248.351 24.1434 248.42 24.0502 248.456 23.9431C248.493 23.8359 248.496 23.7201 248.466 23.611L247.459 20.0638L249.956 17.8013C250.119 17.6527 250.179 17.4211 250.109 17.211V17.211Z" fill="#CE8800"/>
</g>
<g clip-path="url(#clip2_4112_1276)">
<path d="M242.234 7.23847C242.199 7.13585 242.136 7.04569 242.051 6.97911C241.966 6.91252 241.863 6.87243 241.756 6.86379L238.618 6.61271L237.261 3.58591C237.217 3.48842 237.147 3.40562 237.058 3.3475C236.969 3.28938 236.865 3.25842 236.759 3.25836C236.653 3.2583 236.55 3.28915 236.461 3.34717C236.372 3.40519 236.301 3.48792 236.258 3.58536L234.9 6.61271L231.762 6.86379C231.657 6.8722 231.556 6.91102 231.472 6.9756C231.388 7.04018 231.324 7.12779 231.288 7.22795C231.252 7.32811 231.246 7.43658 231.269 7.54037C231.293 7.64417 231.346 7.7389 231.422 7.81323L233.74 10.0896L232.92 13.6656C232.895 13.7739 232.903 13.8872 232.943 13.9908C232.983 14.0944 233.053 14.1836 233.144 14.2467C233.234 14.3099 233.342 14.3441 233.452 14.345C233.563 14.3458 233.671 14.3132 233.762 14.2515L236.759 12.2395L239.756 14.2515C239.85 14.3142 239.96 14.3464 240.073 14.344C240.185 14.3415 240.294 14.3044 240.385 14.2376C240.476 14.1708 240.545 14.0776 240.581 13.9705C240.618 13.8634 240.621 13.7475 240.591 13.6385L239.584 10.0912L242.081 7.82875C242.244 7.68021 242.304 7.44853 242.234 7.23847V7.23847Z" fill="#CE8800"/>
</g>
<path d="M258.141 26.5999C258.106 26.4979 258.043 26.4082 257.958 26.3419C257.873 26.2757 257.771 26.2358 257.663 26.2272L254.526 25.9775L253.168 22.9668C253.125 22.8698 253.055 22.7875 252.966 22.7297C252.877 22.6718 252.773 22.641 252.667 22.641C252.561 22.6409 252.458 22.6716 252.369 22.7293C252.28 22.787 252.209 22.8693 252.166 22.9662L250.808 25.9775L247.671 26.2272C247.565 26.2356 247.465 26.2742 247.381 26.3385C247.297 26.4027 247.233 26.4898 247.197 26.5895C247.161 26.6891 247.154 26.797 247.178 26.9002C247.202 27.0035 247.255 27.0977 247.33 27.1716L249.649 29.4359L248.829 32.9929C248.804 33.1006 248.812 33.2133 248.852 33.3163C248.891 33.4194 248.961 33.5081 249.052 33.5709C249.143 33.6337 249.25 33.6678 249.361 33.6686C249.471 33.6695 249.579 33.6371 249.671 33.5756L252.667 31.5744L255.663 33.5756C255.757 33.638 255.868 33.6701 255.98 33.6676C256.093 33.6651 256.202 33.6282 256.293 33.5618C256.384 33.4954 256.452 33.4027 256.489 33.2962C256.526 33.1896 256.529 33.0744 256.498 32.9659L255.492 29.4375L257.988 27.1871C258.151 27.0393 258.211 26.8089 258.141 26.5999V26.5999Z" fill="#CE8800"/>
<path d="M265.977 36.9589C265.942 36.8569 265.879 36.7672 265.794 36.701C265.709 36.6347 265.606 36.5948 265.499 36.5862L262.362 36.3365L261.004 33.3258C260.961 33.2288 260.891 33.1465 260.802 33.0887C260.713 33.0309 260.609 33.0001 260.503 33C260.397 32.9999 260.293 33.0306 260.204 33.0883C260.115 33.1461 260.045 33.2283 260.002 33.3253L258.644 36.3365L255.507 36.5862C255.401 36.5946 255.301 36.6332 255.217 36.6975C255.133 36.7617 255.069 36.8488 255.033 36.9485C254.997 37.0481 254.99 37.156 255.014 37.2592C255.038 37.3625 255.09 37.4567 255.166 37.5306L257.485 39.7949L256.665 43.3519C256.64 43.4596 256.648 43.5723 256.688 43.6753C256.727 43.7784 256.797 43.8671 256.888 43.9299C256.979 43.9927 257.086 44.0268 257.197 44.0276C257.307 44.0285 257.415 43.9961 257.507 43.9346L260.503 41.9334L263.499 43.9346C263.593 43.997 263.704 44.0291 263.816 44.0266C263.929 44.0242 264.038 43.9872 264.129 43.9208C264.22 43.8544 264.288 43.7617 264.325 43.6552C264.362 43.5486 264.365 43.4334 264.334 43.3249L263.328 39.7965L265.824 37.5461C265.987 37.3983 266.047 37.1679 265.977 36.9589V36.9589Z" fill="#CE8800"/>
<path d="M274.977 47.9589C274.942 47.8569 274.879 47.7672 274.794 47.701C274.709 47.6347 274.606 47.5948 274.499 47.5862L271.362 47.3365L270.004 44.3258C269.961 44.2288 269.891 44.1465 269.802 44.0887C269.713 44.0309 269.609 44.0001 269.503 44C269.397 43.9999 269.293 44.0306 269.204 44.0883C269.115 44.1461 269.045 44.2283 269.002 44.3253L267.644 47.3365L264.507 47.5862C264.401 47.5946 264.301 47.6332 264.217 47.6975C264.133 47.7617 264.069 47.8488 264.033 47.9485C263.997 48.0481 263.99 48.156 264.014 48.2592C264.038 48.3625 264.09 48.4567 264.166 48.5306L266.485 50.7949L265.665 54.3519C265.64 54.4596 265.648 54.5723 265.688 54.6753C265.727 54.7784 265.797 54.8671 265.888 54.9299C265.979 54.9927 266.086 55.0268 266.197 55.0276C266.307 55.0285 266.415 54.9961 266.507 54.9346L269.503 52.9334L272.499 54.9346C272.593 54.997 272.704 55.0291 272.816 55.0266C272.929 55.0242 273.038 54.9872 273.129 54.9208C273.22 54.8544 273.288 54.7617 273.325 54.6552C273.362 54.5486 273.365 54.4334 273.334 54.3249L272.328 50.7965L274.824 48.5461C274.987 48.3983 275.047 48.1679 274.977 47.9589V47.9589Z" fill="#CE8800"/>
<path d="M99.5444 1.62067H60.1076L139.251 95.6207H180.039L99.5444 1.62067Z" fill="url(#paint2_linear_4112_1276)"/>
<path d="M206.537 1.62067H182.733L261.876 89.9483L279.434 86.977L206.537 1.62067Z" fill="url(#paint3_linear_4112_1276)" fill-opacity="0.55"/>
<g clip-path="url(#clip3_4112_1276)">
<path d="M34.1776 113.448L-23.0867 170.713" stroke="#FFFBFB" stroke-opacity="0.15" stroke-width="0.54023"/>
<path d="M38.4973 117.77L-18.767 175.035" stroke="#FFFBFB" stroke-opacity="0.15" stroke-width="0.54023"/>
<path d="M42.817 121.012L-14.4474 178.816" stroke="#FFFBFB" stroke-opacity="0.15" stroke-width="0.54023"/>
<path d="M46.6018 124.253L-10.6626 182.057" stroke="#FFFBFB" stroke-opacity="0.15" stroke-width="0.54023"/>
<path d="M50.921 126.954L-6.88358 184.759" stroke="#FFFBFB" stroke-opacity="0.15" stroke-width="0.54023"/>
<path d="M55.2477 129.115L-7.95917 192.862" stroke="#FFFBFB" stroke-opacity="0.15" stroke-width="0.54023"/>
<path d="M61.1894 130.195L-2.01746 193.943" stroke="#FFFBFB" stroke-opacity="0.15" stroke-width="0.54023"/>
<path d="M66.0488 131.816L-5.26154 203.667" stroke="#FFFBFB" stroke-opacity="0.15" stroke-width="0.54023"/>
<path d="M70.3699 133.977L0.680206 204.207" stroke="#FFFBFB" stroke-opacity="0.15" stroke-width="0.54023"/>
<path d="M76.858 133.977L7.16837 204.207" stroke="#FFFBFB" stroke-opacity="0.15" stroke-width="0.54023"/>
<path d="M83.8811 133.977L14.1915 204.207" stroke="#FFFBFB" stroke-opacity="0.15" stroke-width="0.54023"/>
<path d="M90.3578 133.977L20.6682 204.207" stroke="#FFFBFB" stroke-opacity="0.15" stroke-width="0.54023"/>
<path d="M96.3053 133.977L26.6156 204.207" stroke="#FFFBFB" stroke-opacity="0.15" stroke-width="0.54023"/>
<path d="M104.945 133.977L35.255 204.207" stroke="#FFFBFB" stroke-opacity="0.15" stroke-width="0.54023"/>
<path d="M113.59 131.816L43.9001 202.046" stroke="#FFFBFB" stroke-opacity="0.15" stroke-width="0.54023"/>
<path d="M120.613 131.816L50.9232 202.046" stroke="#FFFBFB" stroke-opacity="0.15" stroke-width="0.54023"/>
<path d="M127.095 131.816L57.4057 202.046" stroke="#FFFBFB" stroke-opacity="0.15" stroke-width="0.54023"/>
<path d="M133.583 131.816L63.8938 202.046" stroke="#FFFBFB" stroke-opacity="0.15" stroke-width="0.54023"/>
<path d="M140.06 131.816L70.3705 202.046" stroke="#FFFBFB" stroke-opacity="0.15" stroke-width="0.54023"/>
<path d="M146.543 131.816L76.8529 202.046" stroke="#FFFBFB" stroke-opacity="0.15" stroke-width="0.54023"/>
<path d="M153.566 131.816L83.876 202.046" stroke="#FFFBFB" stroke-opacity="0.15" stroke-width="0.54023"/>
<path d="M160.054 131.816L90.3642 202.046" stroke="#FFFBFB" stroke-opacity="0.15" stroke-width="0.54023"/>
<path d="M167.071 131.816L97.3815 202.046" stroke="#FFFBFB" stroke-opacity="0.15" stroke-width="0.54023"/>
<path d="M173.559 131.816L103.87 202.046" stroke="#FFFBFB" stroke-opacity="0.15" stroke-width="0.54023"/>
<path d="M180.036 132.897L110.346 203.126" stroke="#FFFBFB" stroke-opacity="0.15" stroke-width="0.54023"/>
<path d="M186.524 132.897L116.835 203.126" stroke="#FFFBFB" stroke-opacity="0.15" stroke-width="0.54023"/>
<path d="M192.466 133.977L122.776 204.207" stroke="#FFFBFB" stroke-opacity="0.15" stroke-width="0.54023"/>
<path d="M200.03 132.897L130.34 203.126" stroke="#FFFBFB" stroke-opacity="0.15" stroke-width="0.54023"/>
<path d="M205.971 133.977L136.282 204.207" stroke="#FFFBFB" stroke-opacity="0.15" stroke-width="0.54023"/>
<path d="M211.913 133.977L142.224 204.207" stroke="#FFFBFB" stroke-opacity="0.15" stroke-width="0.54023"/>
<path d="M218.936 133.977L149.247 204.207" stroke="#FFFBFB" stroke-opacity="0.15" stroke-width="0.54023"/>
<path d="M227.041 132.897L157.351 203.126" stroke="#FFFBFB" stroke-opacity="0.15" stroke-width="0.54023"/>
<path d="M233.523 133.977L163.833 204.207" stroke="#FFFBFB" stroke-opacity="0.15" stroke-width="0.54023"/>
<path d="M241.087 132.897L171.397 203.126" stroke="#FFFBFB" stroke-opacity="0.15" stroke-width="0.54023"/>
<path d="M248.104 132.897L178.415 203.126" stroke="#FFFBFB" stroke-opacity="0.15" stroke-width="0.54023"/>
<path d="M254.052 132.897L184.362 203.126" stroke="#FFFBFB" stroke-opacity="0.15" stroke-width="0.54023"/>
<path d="M261.616 132.897L191.926 203.126" stroke="#FFFBFB" stroke-opacity="0.15" stroke-width="0.54023"/>
<path d="M266.476 133.977L196.786 204.207" stroke="#FFFBFB" stroke-opacity="0.15" stroke-width="0.54023"/>
<path d="M270.796 136.138L201.106 206.368" stroke="#FFFBFB" stroke-opacity="0.15" stroke-width="0.54023"/>
<path d="M275.121 138.839L205.431 209.069" stroke="#FFFBFB" stroke-opacity="0.15" stroke-width="0.54023"/>
<path d="M278.9 141.54L209.21 211.77" stroke="#FFFBFB" stroke-opacity="0.15" stroke-width="0.54023"/>
<path d="M283.22 145.322L213.53 215.552" stroke="#FFFBFB" stroke-opacity="0.15" stroke-width="0.54023"/>
<path d="M287.004 147.483L217.315 217.713" stroke="#FFFBFB" stroke-opacity="0.15" stroke-width="0.54023"/>
<path d="M291.324 151.264L221.635 221.494" stroke="#FFFBFB" stroke-opacity="0.15" stroke-width="0.54023"/>
<path d="M294.028 154.506L224.338 224.736" stroke="#FFFBFB" stroke-opacity="0.15" stroke-width="0.54023"/>
<path d="M296.731 158.287L227.041 228.517" stroke="#FFFBFB" stroke-opacity="0.15" stroke-width="0.54023"/>
<path d="M300.51 159.908L230.82 230.138" stroke="#FFFBFB" stroke-opacity="0.15" stroke-width="0.54023"/>
<path d="M303.213 163.69L233.524 233.92" stroke="#FFFBFB" stroke-opacity="0.15" stroke-width="0.54023"/>
</g>
<mask id="mask0_4112_1276" style="mask-type:alpha" maskUnits="userSpaceOnUse" x="0" y="132" width="279" height="56">
<path fill-rule="evenodd" clip-rule="evenodd" d="M265.14 133.163C264.17 132.988 263.17 132.897 262.149 132.897H16.8836C7.63445 132.897 0.136505 140.395 0.136505 149.644V171.253C0.136505 180.502 7.63446 188 16.8836 188H262.149C271.398 188 278.896 180.502 278.896 171.253V149.644C278.896 147.968 278.65 146.349 278.192 144.822C277.717 144.87 277.233 144.895 276.742 144.895C270.204 144.895 264.903 140.518 264.903 135.118C264.903 134.449 264.985 133.795 265.14 133.163Z" fill="#D9D9D9"/>
</mask>
<g mask="url(#mask0_4112_1276)">
</g>
</g>
<defs>
<linearGradient id="paint0_linear_4112_1276" x1="139.25" y1="1.62067" x2="139.25" y2="188" gradientUnits="userSpaceOnUse">
<stop stop-color="#89C73A"/>
<stop offset="1" stop-color="#11734C"/>
</linearGradient>
<linearGradient id="paint1_linear_4112_1276" x1="207.518" y1="-5.63167" x2="307.283" y2="78.0518" gradientUnits="userSpaceOnUse">
<stop offset="0.147937" stop-color="#F5B852"/>
<stop offset="0.466446" stop-color="#F6E393"/>
<stop offset="0.6927" stop-color="#F7C266"/>
</linearGradient>
<linearGradient id="paint2_linear_4112_1276" x1="48.2225" y1="-27.0115" x2="166.263" y2="95.6207" gradientUnits="userSpaceOnUse">
<stop stop-color="#8CC63D"/>
<stop offset="0.986116" stop-color="#1C7652" stop-opacity="0"/>
</linearGradient>
<linearGradient id="paint3_linear_4112_1276" x1="175.559" y1="-27.0115" x2="281.894" y2="39.6698" gradientUnits="userSpaceOnUse">
<stop stop-color="#86BE3D"/>
<stop offset="0.986116" stop-color="#8CCA4B" stop-opacity="0"/>
</linearGradient>
<clipPath id="clip0_4112_1276">
<rect width="279" height="187" fill="white"/>
</clipPath>
<clipPath id="clip1_4112_1276">
<rect width="11.4638" height="11.4638" fill="white" transform="translate(238.875 12.9725)"/>
</clipPath>
<clipPath id="clip2_4112_1276">
<rect width="11.4638" height="11.4638" fill="white" transform="translate(231 3)"/>
</clipPath>
<clipPath id="clip3_4112_1276">
<rect x="-0.399017" y="136.138" width="279.299" height="51.8621" rx="9.72414" fill="white"/>
</clipPath>
</defs>
</svg>
