<svg width="16" height="14" viewBox="0 0 16 14" fill="none" xmlns="http://www.w3.org/2000/svg">
<path d="M14.789 7.05575L8.35305 0.624499C8.30671 0.578068 8.25167 0.541231 8.19108 0.516098C8.13048 0.490964 8.06553 0.478027 7.99993 0.478027C7.93433 0.478027 7.86937 0.490964 7.80878 0.516098C7.74818 0.541231 7.69314 0.578068 7.6468 0.624499L1.21086 7.05575C1.02336 7.24325 0.917114 7.49794 0.917114 7.76356C0.917114 8.31512 1.36555 8.76356 1.91711 8.76356H2.59524V13.3526C2.59524 13.6292 2.81868 13.8526 3.09524 13.8526H6.99993V10.3526H8.74993V13.8526H12.9046C13.1812 13.8526 13.4046 13.6292 13.4046 13.3526V8.76356H14.0827C14.3484 8.76356 14.6031 8.65887 14.7906 8.46981C15.1796 8.07919 15.1796 7.44637 14.789 7.05575V7.05575Z" fill="#757575"/>
</svg>
