<svg width="16" height="17" viewBox="0 0 16 17" fill="none" xmlns="http://www.w3.org/2000/svg">
<path d="M5.82812 6.58691C5.38281 6.58691 5.02031 6.95098 5.02031 7.39941C5.02031 7.84785 5.38281 8.21191 5.82812 8.21191C6.27344 8.21191 6.63594 7.84785 6.63594 7.39941C6.63594 6.95098 6.27344 6.58691 5.82812 6.58691ZM14.5 2.66504H1.5C1.22344 2.66504 1 2.88848 1 3.16504V13.165C1 13.4416 1.22344 13.665 1.5 13.665H14.5C14.7766 13.665 15 13.4416 15 13.165V3.16504C15 2.88848 14.7766 2.66504 14.5 2.66504ZM9.5 6.72754C9.5 6.65879 9.51562 6.60254 9.53594 6.60254H11.4641C11.4844 6.60254 11.5 6.65879 11.5 6.72754V7.47754C11.5 7.54629 11.4844 7.60254 11.4641 7.60254H9.53594C9.51562 7.60254 9.5 7.54629 9.5 7.47754V6.72754ZM8.15625 10.6807H7.47031C7.40469 10.6807 7.35156 10.6291 7.34688 10.5635C7.2875 9.77441 6.62813 9.14941 5.82812 9.14941C5.02812 9.14941 4.36875 9.77441 4.30937 10.5635C4.30469 10.6291 4.25156 10.6807 4.18594 10.6807H3.5C3.48305 10.6807 3.46626 10.6773 3.45068 10.6706C3.43509 10.6639 3.42102 10.6541 3.40933 10.6419C3.39763 10.6296 3.38856 10.6151 3.38266 10.5992C3.37676 10.5833 3.37415 10.5663 3.375 10.5494C3.41875 9.7166 3.875 8.9916 4.54063 8.5791C4.24709 8.25643 4.0849 7.83562 4.08594 7.39941C4.08594 6.43223 4.86562 5.64941 5.82656 5.64941C6.7875 5.64941 7.56719 6.43223 7.56719 7.39941C7.56719 7.8541 7.39531 8.2666 7.1125 8.5791C7.77969 8.99316 8.23437 9.7166 8.27812 10.5494C8.28437 10.6213 8.22812 10.6807 8.15625 10.6807ZM12.5141 9.85254H9.61094C9.55 9.85254 9.5 9.79629 9.5 9.72754V8.97754C9.5 8.90879 9.55 8.85254 9.61094 8.85254H12.5125C12.5734 8.85254 12.6234 8.90879 12.6234 8.97754V9.72754H12.625C12.625 9.79629 12.575 9.85254 12.5141 9.85254Z" fill="#757575"/>
</svg>
