<svg width="16" height="17" viewBox="0 0 16 17" fill="none" xmlns="http://www.w3.org/2000/svg">
<path d="M13.75 1.91504H2.25C1.97344 1.91504 1.75 2.13848 1.75 2.41504V13.915C1.75 14.1916 1.97344 14.415 2.25 14.415H13.75C14.0266 14.415 14.25 14.1916 14.25 13.915V2.41504C14.25 2.13848 14.0266 1.91504 13.75 1.91504ZM5.75 11.79C5.75 11.8588 5.69375 11.915 5.625 11.915H4.375C4.30625 11.915 4.25 11.8588 4.25 11.79V4.54004C4.25 4.47129 4.30625 4.41504 4.375 4.41504H5.625C5.69375 4.41504 5.75 4.47129 5.75 4.54004V11.79ZM8.75 7.41504C8.75 7.48379 8.69375 7.54004 8.625 7.54004H7.375C7.30625 7.54004 7.25 7.48379 7.25 7.41504V4.54004C7.25 4.47129 7.30625 4.41504 7.375 4.41504H8.625C8.69375 4.41504 8.75 4.47129 8.75 4.54004V7.41504ZM11.75 8.54004C11.75 8.60879 11.6938 8.66504 11.625 8.66504H10.375C10.3062 8.66504 10.25 8.60879 10.25 8.54004V4.54004C10.25 4.47129 10.3062 4.41504 10.375 4.41504H11.625C11.6938 4.41504 11.75 4.47129 11.75 4.54004V8.54004Z" fill="#757575"/>
</svg>
