<svg width="16" height="17" viewBox="0 0 16 17" fill="none" xmlns="http://www.w3.org/2000/svg">
<path d="M13.75 1.91504H2.25C1.97344 1.91504 1.75 2.13848 1.75 2.41504V13.915C1.75 14.1916 1.97344 14.415 2.25 14.415H13.75C14.0266 14.415 14.25 14.1916 14.25 13.915V2.41504C14.25 2.13848 14.0266 1.91504 13.75 1.91504ZM13.25 9.16504H8.25V7.16504H13.25V9.16504ZM9.0625 8.16504C9.0625 8.3308 9.12835 8.48977 9.24556 8.60698C9.36277 8.72419 9.52174 8.79004 9.6875 8.79004C9.85326 8.79004 10.0122 8.72419 10.1294 8.60698C10.2467 8.48977 10.3125 8.3308 10.3125 8.16504C10.3125 7.99928 10.2467 7.84031 10.1294 7.7231C10.0122 7.60589 9.85326 7.54004 9.6875 7.54004C9.52174 7.54004 9.36277 7.60589 9.24556 7.7231C9.12835 7.84031 9.0625 7.99928 9.0625 8.16504Z" fill="#757575"/>
</svg>
