<svg width="32" height="33" viewBox="0 0 32 33" fill="none" xmlns="http://www.w3.org/2000/svg">
<path d="M21.6083 5.93814L16.0001 0L10.2268 5.60825L11.8764 7.25773L16.0001 2.96907L20.1238 7.25773L21.6083 5.93814Z" fill="#1890FF"/>
<path d="M14.3506 13.1959L10.3105 9.07216L11.96 7.58763L15.8351 11.7113L14.3506 13.1959Z" fill="#1890FF"/>
<path d="M16.0001 11.7113L20.1238 7.58763L21.6083 9.07216L17.4846 13.1959L16.0001 11.7113Z" fill="#1890FF"/>
<path d="M26.0619 21.6084L32 16.0002L26.473 10.1457L24.7423 11.8764L29.0309 16.0002L24.7423 20.1239L26.0619 21.6084Z" fill="#F49200"/>
<path d="M18.8041 14.3507L22.9278 10.3106L24.4124 11.9601L20.2887 15.8352L18.8041 14.3507Z" fill="#F49200"/>
<path d="M20.2887 16.0002L24.4124 20.1239L22.9278 21.6084L18.8041 17.4847L20.2887 16.0002Z" fill="#F49200"/>
<path d="M10.2268 26.2269L15.8351 32.165L21.6896 26.6381L19.9588 24.9073L15.8351 29.196L11.7114 24.9073L10.2268 26.2269Z" fill="#1890FF"/>
<path d="M17.4846 18.9692L21.5246 23.0929L19.8751 24.5774L16 20.4537L17.4846 18.9692Z" fill="#1890FF"/>
<path d="M15.8351 20.4537L11.7114 24.5774L10.2268 23.0929L14.3505 18.9692L15.8351 20.4537Z" fill="#1890FF"/>
<path d="M5.93814 10.3916L-2.59565e-07 15.9998L5.52697 21.8543L7.25773 20.1236L2.96907 15.9998L7.25773 11.8761L5.93814 10.3916Z" fill="#1890FF"/>
<path d="M13.1959 17.6493L9.07216 21.6894L7.58763 20.0399L11.7113 16.1648L13.1959 17.6493Z" fill="#1890FF"/>
<path d="M11.7113 15.9998L7.58763 11.8761L9.07216 10.3916L13.1959 14.5153L11.7113 15.9998Z" fill="#1890FF"/>
</svg>
