<svg width="32" height="34" viewBox="0 0 32 34" fill="none" xmlns="http://www.w3.org/2000/svg">
<path d="M21.6083 6.85562L16.0001 0.91748L10.2268 6.52573L11.8764 8.17521L16.0001 3.88655L20.1238 8.17521L21.6083 6.85562Z" fill="white"/>
<path d="M14.3506 14.1134L10.3106 9.98965L11.9601 8.50511L15.8351 12.6288L14.3506 14.1134Z" fill="white"/>
<path d="M16.0001 12.6288L20.1238 8.50511L21.6083 9.98965L17.4846 14.1134L16.0001 12.6288Z" fill="white"/>
<path d="M26.0619 22.5256L32 16.9174L26.473 11.0629L24.7423 12.7937L29.0309 16.9174L24.7423 21.0411L26.0619 22.5256Z" fill="#F49200"/>
<path d="M18.8041 15.2679L22.9278 11.2279L24.4124 12.8774L20.2887 16.7524L18.8041 15.2679Z" fill="#F49200"/>
<path d="M20.2887 16.9174L24.4124 21.0411L22.9278 22.5256L18.8041 18.4019L20.2887 16.9174Z" fill="#F49200"/>
<path d="M10.2268 27.1444L15.835 33.0825L21.6895 27.5556L19.9588 25.8248L15.835 30.1134L11.7113 25.8248L10.2268 27.1444Z" fill="white"/>
<path d="M17.4845 19.8866L21.5246 24.0104L19.8751 25.4949L16 21.3712L17.4845 19.8866Z" fill="white"/>
<path d="M15.8351 21.3712L11.7113 25.4949L10.2268 24.0104L14.3505 19.8866L15.8351 21.3712Z" fill="white"/>
<path d="M5.93814 11.3093L-2.59565e-07 16.9176L5.52697 22.772L7.25773 21.0413L2.96907 16.9176L7.25773 12.7939L5.93814 11.3093Z" fill="white"/>
<path d="M13.1959 18.5671L9.07216 22.6071L7.58763 20.9576L11.7113 17.0825L13.1959 18.5671Z" fill="white"/>
<path d="M11.7113 16.9176L7.58763 12.7939L9.07216 11.3093L13.1959 15.433L11.7113 16.9176Z" fill="white"/>
</svg>
